<svg width="182" height="185" viewBox="0 0 182 185" fill="none" xmlns="http://www.w3.org/2000/svg">
<path d="M179 92C179 141.153 139.153 181 90 181C40.8467 181 0.999994 141.153 0.999996 92C1 42.8467 40.8467 3 90 3C139.153 3 179 42.8467 179 92Z" stroke="white" stroke-opacity="0.4" stroke-width="2"/>
<mask id="mask0_7405_54" style="mask-type:alpha" maskUnits="userSpaceOnUse" x="91" y="2" width="89" height="144">
<rect width="88.8429" height="143.136" transform="matrix(1 0 0 -1 91 145.136)" fill="#C4C4C4"/>
</mask>
<g mask="url(#mask0_7405_54)">
<path d="M179.182 92.3237C179.182 141.477 139.335 181.324 90.1816 181.324C41.0283 181.324 1.18163 141.477 1.18164 92.3237C1.18164 43.1703 41.0283 3.32367 90.1816 3.32367C139.335 3.32367 179.182 43.1703 179.182 92.3237Z" stroke="#FFAC30" stroke-width="2"/>
</g>
<ellipse cx="91.1033" cy="3.10373" rx="3.10373" ry="3.10373" transform="rotate(90 91.1033 3.10373)" fill="#FFAC30"/>
<ellipse cx="91.1033" cy="181.104" rx="3.10373" ry="3.10373" transform="rotate(90 91.1033 181.104)" fill="white"/>
<ellipse cx="163.103" cy="41.1245" rx="3.10373" ry="3.10373" transform="rotate(90 163.103 41.1245)" fill="#FFAC30"/>
<ellipse cx="17.1033" cy="41.1245" rx="3.10373" ry="3.10373" transform="rotate(90 17.1033 41.1245)" fill="white"/>
<ellipse cx="18.1033" cy="144.104" rx="3.10373" ry="3.10373" transform="rotate(90 18.1033 144.104)" fill="white"/>
<ellipse cx="163.846" cy="143.846" rx="5.43154" ry="5.43153" transform="rotate(90 163.846 143.846)" fill="#FFAC30"/>
<path d="M174.984 143.846C174.984 149.998 169.997 154.986 163.846 154.986C157.694 154.986 152.706 149.998 152.706 143.846C152.706 137.694 157.694 132.707 163.846 132.707C169.997 132.708 174.984 137.694 174.984 143.846Z" stroke="#FFAC30" stroke-opacity="0.5"/>
<path d="M181.191 143.847C181.191 153.427 173.425 161.193 163.845 161.193C154.265 161.193 146.498 153.427 146.498 143.847C146.498 134.267 154.265 126.5 163.845 126.5C173.425 126.5 181.191 134.266 181.191 143.847Z" stroke="#FFAC30" stroke-opacity="0.2"/>
</svg>
