<svg width="191" height="183" viewBox="0 0 191 183" fill="none" xmlns="http://www.w3.org/2000/svg">
<path d="M179 93C179 142.153 139.153 182 90 182C40.8467 182 0.999994 142.153 0.999996 93C1 43.8467 40.8467 4 90 4C139.153 4 179 43.8467 179 93Z" stroke="white" stroke-opacity="0.4" stroke-width="2"/>
<mask id="mask0_7404_16" style="mask-type:alpha" maskUnits="userSpaceOnUse" x="90" y="3" width="88" height="61">
<rect width="87.4573" height="59.9998" transform="matrix(1 0 0 -1 90 63.0004)" fill="#C4C4C4"/>
</mask>
<g mask="url(#mask0_7404_16)">
<path d="M178.547 92.9722C178.547 142.141 138.688 181.999 89.5195 182C40.351 182 0.492181 142.141 0.492184 92.9722C0.492297 43.8038 40.3511 3.94488 89.5195 3.94488C138.688 3.94499 178.547 43.8038 178.547 92.9722Z" stroke="#FFAC30" stroke-width="2"/>
</g>
<ellipse cx="90.0136" cy="3.69863" rx="3.0137" ry="3.0137" transform="rotate(90 90.0136 3.69863)" fill="#FFAC30"/>
<ellipse cx="173.328" cy="59.4521" rx="5.27397" ry="5.27397" transform="rotate(90 173.328 59.4521)" fill="#FFAC30"/>
<path d="M184.129 59.4524C184.129 65.4177 179.292 70.2532 173.327 70.2532C167.362 70.253 162.527 65.4176 162.526 59.4524C162.526 53.4871 167.362 48.6509 173.327 48.6507C179.293 48.6507 184.129 53.487 184.129 59.4524Z" stroke="#FFAC30" stroke-opacity="0.5"/>
<path d="M190.156 59.4524C190.156 68.7465 182.621 76.2805 173.327 76.2805C164.033 76.2803 156.499 68.7464 156.499 59.4524C156.499 50.1582 164.033 42.6235 173.327 42.6233C182.621 42.6233 190.156 50.1581 190.156 59.4524Z" stroke="#FFAC30" stroke-opacity="0.2"/>
</svg>
