<svg width="243" height="69" viewBox="0 0 243 69" fill="none" xmlns="http://www.w3.org/2000/svg">
<ellipse cx="7" cy="7" rx="7" ry="7" transform="matrix(-4.37114e-08 -1 -1 4.37114e-08 227 30)" fill="#FFAC30"/>
<path d="M234.5 23C234.5 14.9919 228.008 8.5 220 8.5C211.992 8.5 205.5 14.9919 205.5 23C205.5 31.0081 211.992 37.5 220 37.5C228.008 37.5 234.5 31.0081 234.5 23Z" stroke="#FFAC30" stroke-opacity="0.5"/>
<path d="M242.5 23C242.5 10.5736 232.426 0.5 220 0.500001C207.574 0.500003 197.5 10.5736 197.5 23C197.5 35.4264 207.574 45.5 220 45.5C232.426 45.5 242.5 35.4264 242.5 23Z" stroke="#FFAC30" stroke-opacity="0.2"/>
<circle cx="4.5" cy="4.5" r="4.5" transform="matrix(-4.37114e-08 -1 -1 4.37114e-08 9 69)" fill="#FFAC30"/>
<line y1="-0.5" x2="140" y2="-0.5" transform="matrix(1 8.74228e-08 8.74228e-08 -1 9 64)" stroke="#FFAC30"/>
<line y1="-0.5" x2="82.0244" y2="-0.5" transform="matrix(0.866025 -0.5 -0.5 -0.866025 148.913 64)" stroke="#FFAC30"/>
</svg>
