<svg width="283" height="69" viewBox="0 0 283 69" fill="none" xmlns="http://www.w3.org/2000/svg">
<ellipse cx="7" cy="7" rx="7" ry="7" transform="matrix(4.37114e-08 1 1 -4.37114e-08 16 39)" fill="#FFAC30"/>
<path d="M8.5 46C8.5 54.0081 14.9919 60.5 23 60.5C31.0081 60.5 37.5 54.0081 37.5 46C37.5 37.9919 31.0081 31.5 23 31.5C14.9919 31.5 8.5 37.9919 8.5 46Z" stroke="#FFAC30" stroke-opacity="0.5"/>
<path d="M0.500001 46C0.500002 58.4264 10.5736 68.5 23 68.5C35.4264 68.5 45.5 58.4264 45.5 46C45.5 33.5736 35.4264 23.5 23 23.5C10.5736 23.5 0.500001 33.5736 0.500001 46Z" stroke="#FFAC30" stroke-opacity="0.2"/>
<circle cx="4.5" cy="4.5" r="4.5" transform="matrix(4.37114e-08 1 1 -4.37114e-08 274 0)" fill="#FFAC30"/>
<line x1="274" y1="4.5" x2="94" y2="4.5" stroke="#FFAC30"/>
<line y1="-0.5" x2="82.0244" y2="-0.5" transform="matrix(-0.866025 0.5 0.5 0.866025 94.0874 5)" stroke="#FFAC30"/>
</svg>
