<svg width="273" height="69" viewBox="0 0 273 69" fill="none" xmlns="http://www.w3.org/2000/svg">
<ellipse cx="23" cy="23" rx="7" ry="7" transform="rotate(-90 23 23)" fill="#FFAC30"/>
<path d="M8.5 23C8.5 14.9919 14.9919 8.5 23 8.5C31.0081 8.5 37.5 14.9919 37.5 23C37.5 31.0081 31.0081 37.5 23 37.5C14.9919 37.5 8.5 31.0081 8.5 23Z" stroke="#FFAC30" stroke-opacity="0.5"/>
<path d="M0.500001 23C0.500002 10.5736 10.5736 0.5 23 0.500001C35.4264 0.500003 45.5 10.5736 45.5 23C45.5 35.4264 35.4264 45.5 23 45.5C10.5736 45.5 0.500001 35.4264 0.500001 23Z" stroke="#FFAC30" stroke-opacity="0.2"/>
<circle cx="268.5" cy="64.5" r="4.5" transform="rotate(-90 268.5 64.5)" fill="#FFAC30"/>
<line x1="264" y1="64.5" x2="94" y2="64.5" stroke="#FFAC30"/>
<line x1="93.8374" y1="64.433" x2="22.8022" y2="23.4208" stroke="#FFAC30"/>
</svg>
