<svg width="88" height="68" viewBox="0 0 88 68" fill="none" xmlns="http://www.w3.org/2000/svg">
<path d="M87.656 43.808C87.656 48.224 86.568 52.288 84.392 56C82.216 59.648 79.304 62.56 75.656 64.736C72.008 66.912 67.944 68 63.464 68C59.496 68 55.816 67.136 52.424 65.408C49.032 63.68 46.216 61.344 43.976 58.4C41.8 61.344 39.016 63.68 35.624 65.408C32.232 67.136 28.552 68 24.584 68C20.168 68 16.104 66.912 12.392 64.736C8.744 62.56 5.832 59.648 3.656 56C1.48 52.288 0.392001 48.224 0.392001 43.808V0.799995H9.992V43.808C9.992 46.496 10.632 48.96 11.912 51.2C13.256 53.376 15.016 55.136 17.192 56.48C19.432 57.76 21.896 58.4 24.584 58.4C27.208 58.4 29.608 57.792 31.784 56.576C33.96 55.296 35.688 53.6 36.968 51.488C38.312 49.376 39.048 47.04 39.176 44.48V0.799995H48.872V43.808C48.872 46.496 49.512 48.96 50.792 51.2C52.136 53.376 53.896 55.136 56.072 56.48C58.312 57.76 60.776 58.4 63.464 58.4C66.152 58.4 68.584 57.76 70.76 56.48C73 55.136 74.76 53.376 76.04 51.2C77.384 48.96 78.056 46.496 78.056 43.808V0.799995H87.656V43.808Z" fill="#FFAC30"/>
</svg>
